<svg width="21" height="20" viewBox="0 0 21 20" fill="none" xmlns="http://www.w3.org/2000/svg">
<path d="M19.6398 1.50591e-06H1.39245C1.07041 -0.000593357 0.775365 0.175089 0.628246 0.454871C0.479099 0.738422 0.505276 1.07987 0.69582 1.33883L7.38088 10.5411C7.38312 10.5443 7.38555 10.5473 7.38778 10.5504C7.63068 10.8709 7.76218 11.2591 7.76278 11.6579V19.1605C7.76136 19.3825 7.85065 19.5961 8.01075 19.7537C8.17106 19.9112 8.389 20 8.61627 20C8.73174 19.9998 8.84618 19.9774 8.95292 19.934L12.7094 18.5345C13.0459 18.4339 13.2693 18.1236 13.2693 17.75V11.6579C13.2699 11.2591 13.4014 10.8709 13.6441 10.5504C13.6463 10.5473 13.6487 10.5443 13.651 10.5411L20.3362 1.33864C20.5268 1.07987 20.553 0.73862 20.4038 0.45507C20.2569 0.175089 19.9616 -0.000593357 19.6398 1.50591e-06Z" fill="white"/>
</svg>
