<svg width="21" height="20" viewBox="0 0 21 20" fill="none" xmlns="http://www.w3.org/2000/svg">
<path fill-rule="evenodd" clip-rule="evenodd" d="M13.8768 12.5726H14.7837L20.4764 18.2767L18.7765 19.9765L13.0725 14.2838V13.3826L12.7587 13.0689C11.4639 14.1812 9.78119 14.8543 7.93879 14.8543C3.84322 14.8543 0.523438 11.5345 0.523438 7.43891C0.523438 3.34335 3.84328 0.0235596 7.93879 0.0235596C12.0343 0.0235596 15.3541 3.34335 15.3541 7.43891C15.3541 9.28131 14.681 10.964 13.563 12.2589L13.8768 12.5726ZM2.8051 7.43891C2.8051 10.2738 5.10387 12.5726 7.93879 12.5726C10.7737 12.5726 13.0725 10.2738 13.0725 7.43891C13.0725 4.60399 10.7737 2.30522 7.93879 2.30522C5.10387 2.30522 2.8051 4.60399 2.8051 7.43891Z" fill="white"/>
</svg>
