<svg width="20" height="20" viewBox="0 0 20 20" fill="none" xmlns="http://www.w3.org/2000/svg">
<path d="M10 16.1353C10.3297 16.1353 10.6123 16.4303 10.6123 16.7739V18.6636C10.6123 19.0072 10.3297 19.3022 10 19.3022C9.67033 19.3022 9.3877 19.0072 9.3877 18.6636V16.7739C9.3877 16.4303 9.67033 16.1353 10 16.1353ZM4.54199 14.3521C4.81146 14.0909 5.24221 14.0909 5.51172 14.3521C5.78126 14.6135 5.78126 15.0321 5.51172 15.2935L4.0293 16.731C3.7598 16.9921 3.32905 16.9921 3.05957 16.731C2.79003 16.4696 2.79003 16.051 3.05957 15.7896L4.54199 14.3521ZM14.4883 14.3521C14.7309 14.091 15.1616 14.0909 15.458 14.3521L16.9404 15.7896C17.21 16.051 17.21 16.4696 16.9404 16.731C16.6709 16.9921 16.2402 16.9921 15.9707 16.731L14.4883 15.2935C14.2187 15.0321 14.2187 14.6135 14.4883 14.3521ZM10 5.05225C11.3963 5.05225 12.6856 5.57666 13.5986 6.45166C14.5116 7.30166 15.1016 8.50227 15.1016 9.80225C15.1015 11.102 14.5114 12.3019 13.5986 13.1519C12.6856 14.0019 11.3963 14.5522 10 14.5522C8.60365 14.5522 7.31436 14.0269 6.40137 13.1519C5.48857 12.3019 4.89854 11.102 4.89844 9.80225C4.89844 8.50228 5.46156 7.30166 6.40137 6.45166C7.31436 5.60166 8.60365 5.05225 10 5.05225ZM2.60742 9.40576C2.96157 9.40588 3.26542 9.68001 3.26562 9.99951C3.26562 10.3192 2.96169 10.5931 2.60742 10.5933H0.658203C0.303829 10.5933 0 10.3192 0 9.99951C0.000205889 9.67994 0.303949 9.40576 0.658203 9.40576H2.60742ZM19.3418 9.40576C19.6961 9.40576 19.9998 9.67994 20 9.99951C20 10.3192 19.6962 10.5933 19.3418 10.5933H17.3926C17.0383 10.5931 16.7344 10.3192 16.7344 9.99951C16.7346 9.68001 17.0384 9.40588 17.3926 9.40576H19.3418ZM3.05957 3.26904C3.32909 3.00768 3.75976 3.00771 4.0293 3.26904L5.51172 4.70654C5.78126 4.96794 5.78126 5.38655 5.51172 5.64795C5.26915 5.90883 4.83832 5.90892 4.54199 5.64795L3.05957 4.20947C2.79007 3.94807 2.79004 3.53043 3.05957 3.26904ZM15.9707 3.26904C16.2402 3.00771 16.6709 3.00768 16.9404 3.26904C17.21 3.53043 17.2099 3.94807 16.9404 4.20947L15.458 5.64795C15.1886 5.90891 14.7577 5.90884 14.4883 5.64795C14.2187 5.38655 14.2187 4.96794 14.4883 4.70654L15.9707 3.26904ZM10 0.697754C10.3297 0.697754 10.6123 0.992757 10.6123 1.33643V3.22607C10.6123 3.56974 10.3297 3.86475 10 3.86475C9.67033 3.86475 9.3877 3.56974 9.3877 3.22607V1.33643C9.3877 0.992757 9.67033 0.697754 10 0.697754Z" fill="white"/>
</svg>
